<svg xmlns="http://www.w3.org/2000/svg" width="230" height="62" viewBox="0 0 230 62" role="img" aria-labelledby="title">
  <title id="title">LinkedIn</title>
  <rect x="1" y="1" width="228" height="60" rx="14" fill="#121e2f" stroke="#314359" stroke-width="2"/>
  <rect x="19" y="15" width="33" height="33" rx="7" fill="#0a66c2"/>
  <circle cx="27" cy="24" r="2.15" fill="#fff"/>
  <path fill="#fff" d="M25 28h4v13h-4Zm7 0h4v1.8c.8-1.4 2.1-2.1 3.8-2.1 3.2 0 4.5 2 4.5 5.4V41h-4v-7.2c0-1.8-.6-2.8-2-2.8-1.6 0-2.3 1.1-2.3 3V41h-4Z"/>
  <text x="69" y="39" fill="#f0f3fa" font-family="Arial, Helvetica, sans-serif" font-size="21" font-weight="700">LinkedIn</text>
  <path d="M196 38 209 25m-12 0h12v12" fill="none" stroke="#a8b6cb" stroke-width="2.5" stroke-linecap="round" stroke-linejoin="round"/>
</svg>
